# Blender v2.93.5 OBJ File: 'bruh.blend'
# www.blender.org
mtllib bed6.mtl
o bed6_chassis.019
v 0.322447 -0.093979 -0.898042
v 1.251304 -0.093979 -0.898042
v 1.251303 -0.093979 3.690331
v -1.251303 -0.093979 -0.898042
v -0.322446 -0.093979 -0.898042
v -1.251303 -0.093979 3.690330
vt 0.000889 -3.213069
vt 0.853834 -3.213069
vt 0.000889 1.000311
vt 1.446021 -3.213069
vt 2.298966 -3.213069
vt 2.298966 1.000311
vn 0.0000 1.0000 0.0000
vn -0.0000 0.9998 0.0213
vn 0.0000 0.9991 0.0427
usemtl chassis.18
s 1
f 2/1/1 1/2/2 3/3/1
f 5/4/3 4/5/1 6/6/1
f 1/2/2 5/4/3 6/6/1
f 1/2/2 6/6/1 3/3/1
