# Blender v2.93.5 OBJ File: 'bruh.blend'
# www.blender.org
mtllib body2.mtl
o body2_bonnet_ok
v 0.889800 0.291928 -2.715343
v 0.854127 0.292336 -2.715343
v 0.889800 0.285368 -2.773992
v 0.854127 0.285776 -2.773992
v 0.889800 0.168665 -3.097393
v 0.854127 0.168995 -3.097632
v 0.889800 0.128661 -3.140783
v 0.854127 0.128988 -3.141016
v 0.639884 0.318092 -2.595881
v 0.631939 0.328096 -2.562371
v 0.582757 0.319619 -2.610596
v 0.574814 0.329622 -2.577089
v 0.230004 0.326301 -2.657506
v 0.228054 0.336278 -2.623106
v 0.171149 0.326981 -2.661731
v 0.169199 0.336956 -2.627343
v 0.203323 0.133073 -3.162223
v 0.217282 0.139304 -3.118166
v 0.129876 0.136909 -3.140406
v 0.143830 0.143140 -3.096364
v 0.554766 0.132610 -3.145145
v 0.568759 0.152264 -3.107246
v 0.481332 0.138316 -3.124620
v 0.495359 0.168727 -3.092196
v 0.561795 0.137480 -3.123017
v -0.576538 0.130869 -3.142286
v -0.574002 0.152402 -3.103807
v -0.500026 0.131753 -3.147779
v -0.497491 0.153284 -3.109316
v -0.575455 0.136697 -3.122186
v -0.498795 0.138741 -3.123672
v 0.070064 0.137922 -3.156921
v 0.070064 0.169999 -3.080543
v 0.070064 0.145690 -3.092986
v -0.070064 0.137922 -3.156921
v -0.070064 0.169999 -3.080543
v -0.070064 0.145690 -3.092986
v -0.888106 0.291928 -2.715343
v -0.852432 0.292336 -2.715343
v -0.888106 0.285368 -2.773992
v -0.852432 0.285776 -2.773992
v -0.888106 0.168665 -3.097393
v -0.852432 0.168995 -3.097632
v -0.888106 0.128661 -3.140783
v -0.852432 0.128988 -3.141016
v -0.639884 0.318092 -2.595881
v -0.631939 0.328096 -2.562371
v -0.582757 0.319619 -2.610596
v -0.574814 0.329622 -2.577090
v -0.230004 0.326301 -2.657506
v -0.228054 0.336278 -2.623106
v -0.171149 0.326981 -2.661731
v -0.169199 0.336956 -2.627343
v -0.203323 0.133073 -3.162223
v -0.217282 0.139304 -3.118166
v -0.129876 0.136909 -3.140406
v -0.143830 0.143140 -3.096365
v 0.875019 0.316190 -2.517026
v 0.847977 0.315307 -2.544037
v 0.848137 0.318793 -2.517202
v 0.874862 0.312705 -2.543859
v -0.873325 0.316190 -2.517026
v -0.846283 0.315307 -2.544037
v -0.846443 0.318793 -2.517202
v -0.873168 0.312705 -2.543859
v -0.580455 0.076071 -3.100010
v -0.607195 0.102811 -3.101643
v -0.607195 0.076071 -3.100010
v -0.580455 0.102811 -3.101643
v -0.632339 0.159764 -3.075731
v -0.659078 0.176905 -3.058416
v -0.659078 0.159764 -3.075731
v -0.632339 0.176905 -3.058416
v -0.687554 0.159764 -3.075731
v -0.714294 0.176905 -3.058416
v -0.714294 0.159764 -3.075731
v -0.687554 0.176905 -3.058416
v 0.610363 0.132436 -3.084798
v 0.583624 0.132436 -3.059487
v 0.583624 0.132436 -3.084798
v 0.610363 0.132436 -3.059487
v 1.006480 0.062131 -1.123447
v 1.040144 0.062131 -1.118425
v 1.040144 0.095539 -1.118425
v 1.006480 0.095539 -1.123447
v -1.040144 0.062131 -1.118425
v -1.006480 0.062131 -1.123447
v -1.040144 0.095539 -1.118425
v -1.006480 0.095539 -1.123447
v 0.966780 -0.001706 -1.665716
v 0.966780 -0.001706 -1.681868
v 0.966780 0.013761 -1.665716
v 0.966780 0.013761 -1.681868
v 0.974543 0.249673 -1.149893
v 0.973757 0.249673 -1.176953
v 0.973757 0.277209 -1.176953
v 0.974543 0.277209 -1.149893
v 0.964750 -0.036316 -1.771040
v 0.964750 -0.036316 -1.787192
v 0.964750 -0.020849 -1.787192
v 0.964750 -0.020849 -1.771040
v 1.014375 0.378008 -1.119926
v 0.980712 0.378008 -1.125612
v 1.014375 0.411417 -1.118102
v 0.980712 0.411417 -1.123788
v 1.034229 -0.148975 -1.120453
v 1.000566 -0.148975 -1.124563
v 1.034229 -0.115566 -1.120453
v 1.000566 -0.115566 -1.124562
v -0.966781 -0.001706 -1.681867
v -0.966781 -0.001706 -1.665715
v -0.966781 0.013761 -1.665715
v -0.966781 0.013761 -1.681867
v -0.973758 0.249673 -1.176951
v -0.974544 0.249673 -1.149892
v -0.973758 0.277209 -1.176951
v -0.974544 0.277209 -1.149892
v -0.964751 -0.036316 -1.787191
v -0.964751 -0.036316 -1.771039
v -0.964751 -0.020849 -1.787191
v -0.964751 -0.020849 -1.771039
v -0.980713 0.378008 -1.125611
v -1.014376 0.378008 -1.119925
v -1.014376 0.411417 -1.118101
v -0.980713 0.411417 -1.123787
v -1.000567 -0.148975 -1.124561
v -1.034230 -0.148975 -1.120452
v -1.034230 -0.115566 -1.120452
v -1.000567 -0.115566 -1.124561
vt 0.317770 0.306958
vt 0.749107 0.306958
vt 0.749107 0.040640
vt 0.317770 0.040640
vt 0.317770 0.306958
vt 0.749107 0.306958
vt 0.749107 0.040640
vt 0.317770 0.040640
vt 0.317770 0.306958
vt 0.749107 0.306958
vt 0.749107 0.040640
vt 0.317770 0.040640
vt 0.317770 0.306958
vt 0.749107 0.306958
vt 0.749107 0.040640
vt 0.317770 0.040640
vt 0.317770 0.306958
vt 0.749107 0.306958
vt 0.749107 0.040640
vt 0.317770 0.040640
vt 0.317770 0.306958
vt 0.749107 0.306958
vt 0.748340 0.170330
vt 0.317770 0.040640
vt 0.749107 0.040640
vt 0.749107 0.306958
vt 0.317770 0.306958
vt 0.749903 0.186247
vt 0.318534 0.163408
vt 0.749107 0.040640
vt 0.317770 0.040640
vt 0.549659 0.280072
vt 0.715524 0.280072
vt 0.715524 0.066492
vt 0.549659 0.066492
vt 0.351856 0.280072
vt 0.351856 0.066492
vt 0.749107 0.306958
vt 0.317770 0.306958
vt 0.749107 0.040640
vt 0.317770 0.040640
vt 0.749107 0.306958
vt 0.317770 0.306958
vt 0.749107 0.040640
vt 0.317770 0.040640
vt 0.749107 0.306958
vt 0.317770 0.306958
vt 0.749107 0.040640
vt 0.317770 0.040640
vt 0.749107 0.306958
vt 0.317770 0.306958
vt 0.749107 0.040640
vt 0.317770 0.040640
vt 0.749107 0.306958
vt 0.317770 0.306958
vt 0.749107 0.040640
vt 0.317770 0.040640
vt 0.003929 0.992789
vt 0.320475 0.680470
vt 0.003929 0.680470
vt 0.320475 0.992789
vt 0.320475 0.680470
vt 0.003929 0.992789
vt 0.003929 0.680470
vt 0.320475 0.992789
vt 0.320475 0.992789
vt 0.003929 0.680470
vt 0.320475 0.680470
vt 0.003929 0.992789
vt 0.320475 0.992789
vt 0.003929 0.680470
vt 0.320475 0.680470
vt 0.003929 0.992789
vt 0.320475 0.992789
vt 0.003929 0.680470
vt 0.320475 0.680470
vt 0.003929 0.992789
vt 0.320475 0.992789
vt 0.003929 0.680470
vt 0.320475 0.680470
vt 0.003929 0.992789
vt 0.010026 0.348528
vt 0.320130 0.348528
vt 0.010026 0.661409
vt 0.320130 0.661409
vt 0.320130 0.348528
vt 0.010026 0.348528
vt 0.010026 0.661409
vt 0.320130 0.661409
vt 0.968125 0.381901
vt 0.683129 0.381901
vt 0.683129 0.645528
vt 0.968125 0.645528
vt 0.335455 0.355845
vt 0.648261 0.355845
vt 0.335455 0.664881
vt 0.648261 0.664881
vt 0.683129 0.381901
vt 0.968125 0.381901
vt 0.683129 0.645528
vt 0.968125 0.645528
vt 0.320130 0.348528
vt 0.010026 0.348528
vt 0.010026 0.661409
vt 0.320130 0.661409
vt 0.320130 0.348528
vt 0.010026 0.348528
vt 0.010026 0.661409
vt 0.320130 0.661409
vt 0.683129 0.381901
vt 0.968125 0.381901
vt 0.683129 0.645528
vt 0.968125 0.645528
vt 0.648261 0.355845
vt 0.335455 0.355845
vt 0.335455 0.664881
vt 0.648261 0.664881
vt 0.968125 0.381901
vt 0.683129 0.381901
vt 0.683129 0.645528
vt 0.968125 0.645528
vt 0.010026 0.348528
vt 0.320130 0.348528
vt 0.010026 0.661409
vt 0.320130 0.661409
vt 0.010026 0.348528
vt 0.320130 0.348528
vt 0.010026 0.661409
vt 0.320130 0.661409
vn 0.5877 -0.5524 -0.5912
vn 0.5972 -0.5427 0.5906
vn -0.5974 -0.5414 0.5916
vn -0.5875 -0.5516 -0.5921
vn 0.5876 -0.5524 -0.5912
vn -0.5973 -0.5414 0.5917
vn 0.5877 -0.7952 -0.1495
vn 0.5972 -0.0877 0.7973
vn -0.5973 -0.0861 0.7973
vn -0.5876 -0.7950 -0.1506
vn 0.5876 -0.7952 -0.1495
vn -0.5973 -0.0861 0.7974
vn -0.5182 -0.5687 -0.6388
vn 0.6067 -0.7210 -0.3348
vn 0.3303 -0.4944 0.8040
vn -0.8070 -0.3471 0.4778
vn -0.5181 -0.5688 -0.6388
vn -0.6160 -0.5777 -0.5356
vn 0.5472 -0.7132 -0.4382
vn 0.4763 -0.4876 0.7317
vn -0.7032 -0.3572 0.6148
vn -0.6160 -0.5777 -0.5355
vn -0.8053 -0.4740 -0.3561
vn 0.3064 -0.6550 -0.6907
vn 0.6584 -0.6043 0.4486
vn -0.4757 -0.4250 0.7701
vn -0.8053 -0.4740 -0.3560
vn 0.6584 -0.6043 0.4487
vn -0.8228 -0.5682 -0.0124
vn 0.3428 -0.9140 -0.2170
vn 0.5617 -0.7383 0.3734
vn -0.4808 0.1033 0.8707
vn -0.8111 -0.5845 -0.0221
vn 0.6510 -0.2401 0.7201
vn -0.8110 -0.5846 -0.0221
vn -0.5472 -0.7132 -0.4382
vn 0.6161 -0.5777 -0.5355
vn -0.6063 -0.7871 0.1136
vn 0.7959 -0.5953 0.1104
vn -0.5163 -0.4794 0.7097
vn 0.7264 -0.3531 0.5896
vn -0.5208 -0.4880 0.7004
vn 0.7959 -0.5953 0.1105
vn 0.0000 -0.7214 0.6925
vn -0.0000 -0.4800 0.8773
vn 0.0000 -0.9109 0.4127
vn 0.0000 -0.9927 0.1203
vn 0.0000 -0.9928 0.1197
vn -0.5972 -0.5427 0.5906
vn -0.5877 -0.5524 -0.5912
vn 0.5974 -0.5414 0.5916
vn -0.5876 -0.5524 -0.5912
vn 0.5875 -0.5516 -0.5921
vn 0.5973 -0.5414 0.5917
vn -0.5972 -0.0877 0.7973
vn -0.5877 -0.7952 -0.1495
vn 0.5974 -0.0861 0.7973
vn -0.5876 -0.7952 -0.1495
vn 0.5876 -0.7950 -0.1506
vn 0.5973 -0.0861 0.7974
vn -0.6067 -0.7210 -0.3348
vn 0.5182 -0.5687 -0.6387
vn -0.3303 -0.4944 0.8040
vn 0.5181 -0.5688 -0.6388
vn 0.8070 -0.3471 0.4778
vn 0.6160 -0.5777 -0.5356
vn -0.4763 -0.4876 0.7317
vn 0.6160 -0.5777 -0.5355
vn 0.7032 -0.3572 0.6148
vn -0.3064 -0.6550 -0.6907
vn 0.8053 -0.4740 -0.3561
vn -0.6584 -0.6043 0.4486
vn 0.8053 -0.4740 -0.3560
vn 0.4757 -0.4250 0.7701
vn -0.6584 -0.6043 0.4487
vn -0.0964 -0.9870 0.1288
vn 0.0964 -0.9870 0.1288
vn 0.0000 -0.0610 -0.9981
vn 0.0000 0.7107 -0.7035
vn 0.0000 1.0000 0.0000
vn 0.1476 0.0000 -0.9891
vn 0.1475 0.0000 -0.9891
vn -0.1475 0.0000 -0.9891
vn -0.1476 0.0000 -0.9891
vn -1.0000 0.0000 0.0000
vn -0.9996 0.0000 0.0290
vn -0.1663 -0.0538 0.9846
vn -0.1212 -0.0000 0.9926
vn 1.0000 0.0000 0.0000
vn 0.9996 0.0000 0.0290
vn 0.1663 -0.0538 0.9846
vn 0.1212 0.0000 0.9926
usemtl bonnet_ok.1
s 1
f 3/1/1 1/2/2 2/3/3
f 4/4/4 3/1/5 2/3/6
f 7/5/7 5/6/8 6/7/9
f 8/8/10 7/5/11 6/7/12
f 11/9/13 9/10/14 10/11/15
f 12/12/16 11/9/17 10/11/15
f 15/13/18 13/14/19 14/15/20
f 16/16/21 15/13/22 14/15/20
f 19/17/23 17/18/24 18/19/25
f 20/20/26 19/17/27 18/19/28
f 23/21/29 21/22/30 25/23/31
f 24/24/32 23/21/33 22/25/34
f 22/25/34 23/21/35 25/23/31
f 26/26/36 28/27/37 30/28/38
f 28/27/37 31/29/39 30/28/38
f 27/30/40 30/28/38 31/29/39
f 29/31/41 27/30/42 31/29/43
f 34/32/44 33/33/45 36/34/45
f 36/34/45 37/35/46 34/32/44
f 32/36/47 34/32/44 37/35/46
f 37/35/46 35/37/48 32/36/47
f 38/38/49 40/39/50 39/40/51
f 40/39/52 41/41/53 39/40/54
f 42/42/55 44/43/56 43/44/57
f 44/43/58 45/45/59 43/44/60
f 46/46/61 48/47/62 47/48/63
f 48/47/64 49/49/65 47/48/63
f 50/50/36 52/51/66 51/52/67
f 52/51/68 53/53/69 51/52/67
f 54/54/70 56/55/71 55/56/72
f 56/55/73 57/57/74 55/56/75
f 59/58/76 58/59/76 60/60/76
f 58/59/76 59/58/76 61/61/76
f 62/62/77 63/63/77 64/64/77
f 63/63/77 62/62/77 65/65/77
f 67/66/78 66/67/78 68/68/78
f 66/67/78 67/66/78 69/69/78
f 71/70/79 70/71/79 72/72/79
f 70/71/79 71/70/79 73/73/79
f 75/74/79 74/75/79 76/76/79
f 74/75/79 75/74/79 77/77/79
f 79/78/80 78/79/80 80/80/80
f 78/79/80 79/78/80 81/81/80
f 83/82/81 82/83/82 84/84/82
f 82/83/82 85/85/82 84/84/82
f 87/86/83 86/87/84 88/88/83
f 89/89/83 87/86/83 88/88/83
f 91/90/85 90/91/85 92/92/85
f 93/93/85 91/90/85 92/92/85
f 95/94/86 94/95/86 96/96/86
f 94/95/86 97/97/86 96/96/86
f 99/98/85 98/99/85 100/100/85
f 98/99/85 101/101/85 100/100/85
f 103/102/87 102/103/87 104/104/87
f 105/105/87 103/102/87 104/104/87
f 107/106/88 106/107/88 108/108/88
f 109/109/88 107/106/88 108/108/88
f 111/110/89 110/111/89 112/112/89
f 110/111/89 113/113/89 112/112/89
f 115/114/90 114/115/90 116/116/90
f 117/117/90 115/114/90 116/116/90
f 119/118/89 118/119/89 120/120/89
f 121/121/89 119/118/89 120/120/89
f 123/122/91 122/123/91 124/124/91
f 122/123/91 125/125/91 124/124/91
f 127/126/92 126/127/92 128/128/92
f 126/127/92 129/129/92 128/128/92
