# Blender v2.93.5 OBJ File: 'bruh.blend'
# www.blender.org
mtllib body3.mtl
o body3_boot_ok
v -1.184109 -0.102863 3.703217
v -1.184109 0.341286 3.703217
v 0.000000 -0.102863 3.703217
v 0.000000 0.341286 3.703217
v 1.184109 0.341286 3.703217
v 1.184109 -0.102863 3.703217
v -1.184109 0.341286 3.703217
v -1.184109 0.785439 3.703217
v 0.000000 0.341286 3.703217
v 0.000000 0.785439 3.703217
v 1.184109 0.785439 3.703217
v 1.184109 0.341286 3.703217
v -1.184109 0.785439 3.703217
v -1.184109 1.229592 3.703217
v 0.000000 0.785439 3.703217
v 0.000000 1.229592 3.703217
v 1.184109 1.229592 3.703217
v 1.184109 0.785439 3.703217
v -1.184109 1.229592 3.703217
v -1.184109 1.673745 3.703217
v 0.000000 1.229592 3.703217
v 0.000000 1.673745 3.703217
v 1.184109 1.673745 3.703217
v 1.184109 1.229592 3.703217
v -1.184109 1.673745 3.703217
v -1.184109 2.117897 3.703217
v 0.000000 1.673745 3.703217
v 0.000000 2.117897 3.703217
v 1.184109 2.117897 3.703217
v 1.184109 1.673745 3.703217
v -1.184109 0.341286 3.699257
v -1.184109 -0.102863 3.699257
v 0.000000 -0.102863 3.699257
v 0.000000 0.341286 3.699257
v 1.184109 -0.102863 3.699257
v 1.184109 0.341286 3.699257
v -1.184109 0.785439 3.699257
v -1.184109 0.341286 3.699257
v 0.000000 0.341286 3.699257
v 0.000000 0.785439 3.699257
v 1.184109 0.341286 3.699257
v 1.184109 0.785439 3.699257
v -1.184109 1.229592 3.699257
v -1.184109 0.785439 3.699257
v 0.000000 0.785439 3.699257
v 0.000000 1.229592 3.699257
v 1.184109 0.785439 3.699257
v 1.184109 1.229592 3.699257
v -1.184109 1.673745 3.699257
v -1.184109 1.229592 3.699257
v 0.000000 1.229592 3.699257
v 0.000000 1.673745 3.699257
v 1.184109 1.229592 3.699257
v 1.184109 1.673745 3.699257
v -1.184109 2.117897 3.699257
v -1.184109 1.673745 3.699257
v 0.000000 1.673745 3.699257
v 0.000000 2.117897 3.699257
v 1.184109 1.673745 3.699257
v 1.184109 2.117897 3.699257
vt 0.000000 0.528277
vt 0.000000 0.000698
vt 0.998289 0.000698
vt 0.998289 0.528277
vt 0.000000 0.000698
vt 0.000000 0.528277
vt 0.000000 1.000011
vt 0.000000 0.527233
vt 0.998289 0.527233
vt 0.998289 1.000011
vt 0.000000 0.527233
vt 0.000000 1.000011
vt 0.000000 1.000011
vt 0.000000 0.527233
vt 0.998289 0.527233
vt 0.998289 1.000011
vt 0.000000 0.527233
vt 0.000000 1.000011
vt 0.000000 1.000011
vt 0.000000 0.527233
vt 0.998289 0.527233
vt 0.998289 1.000011
vt 0.000000 0.527233
vt 0.000000 1.000011
vt 0.000000 0.029318
vt 0.000000 0.528283
vt 0.998289 0.528283
vt 0.998289 0.029318
vt 0.000000 0.528283
vt 0.000000 0.029318
vt 0.000000 0.000698
vt 0.000000 0.528277
vt 0.998289 0.000698
vt 0.998289 0.528277
vt 0.000000 0.528277
vt 0.000000 0.000698
vt 0.000000 0.527233
vt 0.000000 1.000011
vt 0.998289 0.527233
vt 0.998289 1.000011
vt 0.000000 1.000011
vt 0.000000 0.527233
vt 0.000000 0.527233
vt 0.000000 1.000011
vt 0.998289 0.527233
vt 0.998289 1.000011
vt 0.000000 1.000011
vt 0.000000 0.527233
vt 0.000000 0.527233
vt 0.000000 1.000011
vt 0.998289 0.527233
vt 0.998289 1.000011
vt 0.000000 1.000011
vt 0.000000 0.527233
vt 0.000000 0.528283
vt 0.000000 0.029318
vt 0.998289 0.528283
vt 0.998289 0.029318
vt 0.000000 0.029318
vt 0.000000 0.528283
vn 0.0000 0.0000 1.0000
vn 0.0000 0.0000 -1.0000
usemtl boot_ok.4
s 1
f 2/1/1 1/2/1 3/3/1
f 2/1/1 3/3/1 4/4/1
f 6/5/1 5/6/1 3/3/1
f 3/3/1 5/6/1 4/4/1
f 8/7/1 7/8/1 9/9/1
f 10/10/1 8/7/1 9/9/1
f 12/11/1 11/12/1 9/9/1
f 11/12/1 10/10/1 9/9/1
f 14/13/1 13/14/1 15/15/1
f 14/13/1 15/15/1 16/16/1
f 18/17/1 17/18/1 15/15/1
f 15/15/1 17/18/1 16/16/1
f 20/19/1 19/20/1 21/21/1
f 22/22/1 20/19/1 21/21/1
f 24/23/1 23/24/1 21/21/1
f 23/24/1 22/22/1 21/21/1
f 26/25/1 25/26/1 27/27/1
f 26/25/1 27/27/1 28/28/1
f 30/29/1 29/30/1 27/27/1
f 27/27/1 29/30/1 28/28/1
f 32/31/2 31/32/2 33/33/2
f 33/33/2 31/32/2 34/34/2
f 36/35/2 35/36/2 33/33/2
f 36/35/2 33/33/2 34/34/2
f 38/37/2 37/38/2 39/39/2
f 37/38/2 40/40/2 39/39/2
f 42/41/2 41/42/2 39/39/2
f 40/40/2 42/41/2 39/39/2
f 44/43/2 43/44/2 45/45/2
f 45/45/2 43/44/2 46/46/2
f 48/47/2 47/48/2 45/45/2
f 48/47/2 45/45/2 46/46/2
f 50/49/2 49/50/2 51/51/2
f 49/50/2 52/52/2 51/51/2
f 54/53/2 53/54/2 51/51/2
f 52/52/2 54/53/2 51/51/2
f 56/55/2 55/56/2 57/57/2
f 57/57/2 55/56/2 58/58/2
f 60/59/2 59/60/2 57/57/2
f 60/59/2 57/57/2 58/58/2
