# Blender v2.93.5 OBJ File: 'bruh.blend'
# www.blender.org
mtllib misc.mtl
o misc_boot_ok.003
v -0.785017 0.207965 3.717213
v -0.779178 0.207965 3.717213
v -0.780888 0.212074 3.717213
v -0.785017 0.213776 3.717213
v -0.789145 0.212074 3.717213
v -0.790855 0.207965 3.717213
v -0.789145 0.203857 3.717213
v -0.785017 0.202155 3.717213
v -0.780888 0.203857 3.717213
v -0.585164 0.207919 3.717213
v -0.579325 0.207919 3.717213
v -0.581036 0.212028 3.717213
v -0.585164 0.213730 3.717213
v -0.589292 0.212028 3.717213
v -0.591002 0.207919 3.717213
v -0.589292 0.203810 3.717213
v -0.585164 0.202108 3.717213
v -0.581036 0.203810 3.717213
v 0.092726 -0.397788 -3.205191
v 0.086888 -0.397788 -3.205191
v 0.088598 -0.393679 -3.205191
v 0.092726 -0.391977 -3.205191
v 0.096855 -0.393679 -3.205191
v 0.098565 -0.397788 -3.205191
v 0.096855 -0.401897 -3.205191
v 0.092726 -0.403599 -3.205191
v 0.088598 -0.401897 -3.205191
v -0.107126 -0.397835 -3.205191
v -0.112965 -0.397835 -3.205191
v -0.111255 -0.393726 -3.205191
v -0.107126 -0.392024 -3.205191
v -0.102998 -0.393726 -3.205191
v -0.101288 -0.397835 -3.205191
v -0.102998 -0.401944 -3.205191
v -0.107126 -0.403646 -3.205191
v -0.111255 -0.401944 -3.205191
vt 0.000000 1.000000
vt 0.000000 1.000000
vt 0.000000 1.000000
vt 0.000000 1.000000
vt 0.000000 1.000000
vt 0.000000 1.000000
vt 0.000000 1.000000
vt 0.000000 1.000000
vt 0.000000 1.000000
vt 0.000000 1.000000
vt 0.000000 1.000000
vt 0.000000 1.000000
vt 0.000000 1.000000
vt 0.000000 1.000000
vt 0.000000 1.000000
vt 0.000000 1.000000
vt 0.000000 1.000000
vt 0.000000 1.000000
vt 0.000000 1.000000
vt 0.000000 1.000000
vt 0.000000 1.000000
vt 0.000000 1.000000
vt 0.000000 1.000000
vt 0.000000 1.000000
vt 0.000000 1.000000
vt 0.000000 1.000000
vt 0.000000 1.000000
vt 0.000000 1.000000
vt 0.000000 1.000000
vt 0.000000 1.000000
vt 0.000000 1.000000
vt 0.000000 1.000000
vt 0.000000 1.000000
vt 0.000000 1.000000
vt 0.000000 1.000000
vt 0.000000 1.000000
vn 0.0000 0.0000 1.0000
vn 0.0000 0.0000 -1.0000
vn 0.0001 0.0000 -1.0000
usemtl bump_front_ok.2
s 1
f 3/1/1 1/2/1 2/3/1
f 4/4/1 1/2/1 3/1/1
f 5/5/1 1/2/1 4/4/1
f 6/6/1 1/2/1 5/5/1
f 7/7/1 1/2/1 6/6/1
f 8/8/1 1/2/1 7/7/1
f 9/9/1 1/2/1 8/8/1
f 2/3/1 1/2/1 9/9/1
f 12/10/1 10/11/1 11/12/1
f 13/13/1 10/11/1 12/10/1
f 14/14/1 10/11/1 13/13/1
f 15/15/1 10/11/1 14/14/1
f 16/16/1 10/11/1 15/15/1
f 17/17/1 10/11/1 16/16/1
f 18/18/1 10/11/1 17/17/1
f 11/12/1 10/11/1 18/18/1
f 21/19/2 19/20/2 20/21/2
f 22/22/2 19/20/2 21/19/2
f 23/23/2 19/20/2 22/22/2
f 24/24/2 19/20/2 23/23/2
f 25/25/2 19/20/2 24/24/2
f 26/26/2 19/20/2 25/25/2
f 27/27/2 19/20/2 26/26/2
f 20/21/2 19/20/2 27/27/2
f 30/28/2 28/29/2 29/30/2
f 31/31/2 28/29/2 30/28/2
f 32/32/3 28/29/2 31/31/2
f 33/33/2 28/29/2 32/32/3
f 34/34/2 28/29/2 33/33/2
f 35/35/2 28/29/2 34/34/2
f 36/36/2 28/29/2 35/35/2
f 29/30/2 28/29/2 36/36/2
