# Blender v2.93.5 OBJ File: 'bruh.blend'
# www.blender.org
mtllib misc3.mtl
o misc3_wing_lf_ok.005
v -0.876379 -0.099493 -3.150620
v -0.881205 -0.103510 -3.129157
v -0.864161 -0.112533 -3.129157
v -0.860231 -0.107933 -3.146538
v -0.714774 -0.112533 -3.129157
v -0.718682 -0.107933 -3.146538
v -0.697467 -0.103510 -3.129157
v -0.702283 -0.099493 -3.150620
v -0.689275 -0.083095 -3.129157
v -0.694523 -0.080397 -3.146538
v -0.689275 0.000559 -3.129157
v -0.694523 -0.002148 -3.146538
v -0.697467 0.020836 -3.129157
v -0.702283 0.016819 -3.150620
v -0.714340 0.029859 -3.129157
v -0.718271 0.025258 -3.146538
v -0.863728 0.029859 -3.129157
v -0.859820 0.025258 -3.146538
v -0.881205 0.020836 -3.129157
v -0.876379 0.016819 -3.150620
v -0.889411 0.000559 -3.129157
v -0.884154 -0.002148 -3.146538
v -0.889411 -0.083095 -3.129157
v -0.884154 -0.080397 -3.146538
v 0.881205 -0.103510 -3.129157
v 0.876379 -0.099493 -3.150620
v 0.864161 -0.112533 -3.129157
v 0.860230 -0.107933 -3.146538
v 0.714774 -0.112533 -3.129157
v 0.718682 -0.107933 -3.146538
v 0.697467 -0.103510 -3.129157
v 0.702283 -0.099493 -3.150620
v 0.689275 -0.083095 -3.129157
v 0.694523 -0.080397 -3.146538
v 0.689275 0.000559 -3.129157
v 0.694523 -0.002148 -3.146538
v 0.697467 0.020836 -3.129157
v 0.702283 0.016819 -3.150620
v 0.714340 0.029859 -3.129157
v 0.718271 0.025258 -3.146538
v 0.863729 0.029859 -3.129157
v 0.859820 0.025258 -3.146538
v 0.881205 0.020836 -3.129157
v 0.876379 0.016819 -3.150620
v 0.889411 0.000559 -3.129157
v 0.884154 -0.002148 -3.146538
v 0.889411 -0.083095 -3.129157
v 0.884154 -0.080397 -3.146538
vt 0.037941 0.575269
vt 0.042644 0.579108
vt 0.054553 0.566649
vt 0.058385 0.571044
vt 0.200161 0.566649
vt 0.196351 0.571044
vt 0.217030 0.575269
vt 0.212335 0.579108
vt 0.225014 0.594774
vt 0.219899 0.597352
vt 0.225014 0.674698
vt 0.219899 0.672112
vt 0.217030 0.694071
vt 0.212335 0.690233
vt 0.200583 0.702691
vt 0.196752 0.698296
vt 0.054975 0.702691
vt 0.058785 0.698296
vt 0.037941 0.694071
vt 0.042644 0.690233
vt 0.029942 0.674698
vt 0.035066 0.672112
vt 0.029942 0.594774
vt 0.035066 0.597352
vt 0.042644 0.579108
vt 0.037941 0.575269
vt 0.054553 0.566649
vt 0.058385 0.571044
vt 0.200161 0.566649
vt 0.196351 0.571044
vt 0.217030 0.575269
vt 0.212335 0.579108
vt 0.225014 0.594774
vt 0.219899 0.597352
vt 0.225014 0.674698
vt 0.219899 0.672112
vt 0.217030 0.694071
vt 0.212335 0.690233
vt 0.200583 0.702691
vt 0.196752 0.698296
vt 0.054975 0.702691
vt 0.058785 0.698296
vt 0.037941 0.694071
vt 0.042644 0.690233
vt 0.029942 0.674698
vt 0.035066 0.672112
vt 0.029942 0.594774
vt 0.035066 0.597352
vn -0.8004 -0.5246 -0.2901
vn -0.6319 -0.7169 -0.2945
vn -0.2926 -0.9137 -0.2820
vn -0.1324 -0.9507 -0.2806
vn 0.1551 -0.9462 -0.2841
vn 0.2935 -0.9134 -0.2819
vn 0.6221 -0.7262 -0.2927
vn 0.7902 -0.5391 -0.2916
vn 0.9345 -0.2138 -0.2847
vn 0.9520 -0.0967 -0.2904
vn 0.9492 0.1159 -0.2926
vn 0.9335 0.2186 -0.2843
vn 0.8006 0.5244 -0.2898
vn 0.6336 0.7155 -0.2944
vn 0.2950 0.9128 -0.2823
vn 0.1335 0.9505 -0.2807
vn -0.1539 0.9464 -0.2839
vn -0.2912 0.9143 -0.2817
vn -0.6194 0.7284 -0.2928
vn -0.7884 0.5413 -0.2921
vn -0.9339 0.2154 -0.2853
vn -0.9518 0.0974 -0.2910
vn -0.9492 -0.1153 -0.2929
vn -0.9336 -0.2176 -0.2846
vn 0.6319 -0.7169 -0.2945
vn 0.8004 -0.5246 -0.2901
vn 0.2925 -0.9135 -0.2828
vn 0.1324 -0.9507 -0.2806
vn -0.1551 -0.9462 -0.2841
vn -0.2935 -0.9134 -0.2819
vn -0.6221 -0.7262 -0.2927
vn -0.7902 -0.5391 -0.2916
vn -0.9345 -0.2138 -0.2847
vn -0.9520 -0.0967 -0.2904
vn -0.9492 0.1159 -0.2926
vn -0.9335 0.2186 -0.2843
vn -0.8006 0.5244 -0.2898
vn -0.6336 0.7155 -0.2944
vn -0.2949 0.9126 -0.2831
vn -0.1335 0.9505 -0.2807
vn 0.1539 0.9464 -0.2839
vn 0.2912 0.9143 -0.2817
vn 0.6194 0.7284 -0.2928
vn 0.7885 0.5413 -0.2920
vn 0.9339 0.2154 -0.2853
vn 0.9518 0.0974 -0.2910
vn 0.9492 -0.1153 -0.2929
vn 0.9336 -0.2176 -0.2846
usemtl wing_lf_ok.5
s 1
f 2/1/1 1/2/2 3/3/3
f 3/3/3 1/2/2 4/4/4
f 3/3/3 4/4/4 5/5/5
f 5/5/5 4/4/4 6/6/6
f 5/5/5 6/6/6 7/7/7
f 7/7/7 6/6/6 8/8/8
f 7/7/7 8/8/8 9/9/9
f 9/9/9 8/8/8 10/10/10
f 9/9/9 10/10/10 11/11/11
f 11/11/11 10/10/10 12/12/12
f 11/11/11 12/12/12 13/13/13
f 13/13/13 12/12/12 14/14/14
f 13/13/13 14/14/14 15/15/15
f 15/15/15 14/14/14 16/16/16
f 15/15/15 16/16/16 17/17/17
f 17/17/17 16/16/16 18/18/18
f 17/17/17 18/18/18 19/19/19
f 19/19/19 18/18/18 20/20/20
f 19/19/19 20/20/20 21/21/21
f 21/21/21 20/20/20 22/22/22
f 21/21/21 22/22/22 23/23/23
f 23/23/23 22/22/22 24/24/24
f 23/23/23 24/24/24 2/1/1
f 2/1/1 24/24/24 1/2/2
f 26/25/25 25/26/26 27/27/27
f 26/25/25 27/27/27 28/28/28
f 28/28/28 27/27/27 29/29/29
f 28/28/28 29/29/29 30/30/30
f 30/30/30 29/29/29 31/31/31
f 30/30/30 31/31/31 32/32/32
f 32/32/32 31/31/31 33/33/33
f 32/32/32 33/33/33 34/34/34
f 34/34/34 33/33/33 35/35/35
f 34/34/34 35/35/35 36/36/36
f 36/36/36 35/35/35 37/37/37
f 36/36/36 37/37/37 38/38/38
f 38/38/38 37/37/37 39/39/39
f 38/38/38 39/39/39 40/40/40
f 40/40/40 39/39/39 41/41/41
f 40/40/40 41/41/41 42/42/42
f 42/42/42 41/41/41 43/43/43
f 42/42/42 43/43/43 44/44/44
f 44/44/44 43/43/43 45/45/45
f 44/44/44 45/45/45 46/46/46
f 46/46/46 45/45/45 47/47/47
f 46/46/46 47/47/47 48/48/48
f 48/48/48 47/47/47 25/26/26
f 48/48/48 25/26/26 26/25/25
