# Blender v2.93.5 OBJ File: 'bruh.blend'
# www.blender.org
mtllib windows.mtl
o windows_door_lf_ok
v -1.287025 0.673229 -1.725927
v -1.286972 0.459959 -1.723359
v -1.295970 0.435435 -1.721653
v -1.296133 0.697786 -1.724795
v -1.315378 0.421270 -1.718438
v -1.315657 0.712025 -1.721906
v -1.338771 0.415979 -1.714705
v -1.339377 0.717405 -1.718253
v -1.425334 0.416143 -1.701134
v -1.425941 0.717569 -1.704679
v -1.449056 0.421523 -1.697480
v -1.449335 0.712278 -1.700949
v -1.468580 0.435762 -1.694590
v -1.468741 0.698113 -1.697734
v -1.477687 0.460321 -1.693460
v -1.477740 0.673590 -1.696027
v 1.286971 0.459959 -1.723360
v 1.287024 0.673229 -1.725928
v 1.295967 0.435435 -1.721653
v 1.296131 0.697786 -1.724797
v 1.315377 0.421270 -1.718439
v 1.315656 0.712026 -1.721905
v 1.338769 0.415979 -1.714705
v 1.339375 0.717406 -1.718254
v 1.425331 0.416143 -1.701136
v 1.425940 0.717569 -1.704679
v 1.449054 0.421522 -1.697481
v 1.449334 0.712279 -1.700950
v 1.468579 0.435762 -1.694593
v 1.468740 0.698114 -1.697735
v 1.477684 0.460321 -1.693461
v 1.477738 0.673591 -1.696027
vt 0.000000 1.000000
vt 0.000000 1.000000
vt 0.000000 1.000000
vt 0.000000 1.000000
vt 0.000000 1.000000
vt 0.000000 1.000000
vt 0.000000 1.000000
vt 0.000000 1.000000
vt 0.000000 1.000000
vt 0.000000 1.000000
vt 0.000000 1.000000
vt 0.000000 1.000000
vt 0.000000 1.000000
vt 0.000000 1.000000
vt 0.000000 1.000000
vt 0.000000 1.000000
vt 0.000000 1.000000
vt 0.000000 1.000000
vt 0.000000 1.000000
vt 0.000000 1.000000
vt 0.000000 1.000000
vt 0.000000 1.000000
vt 0.000000 1.000000
vt 0.000000 1.000000
vt 0.000000 1.000000
vt 0.000000 1.000000
vt 0.000000 1.000000
vt 0.000000 1.000000
vt 0.000000 1.000000
vt 0.000000 1.000000
vt 0.000000 1.000000
vt 0.000000 1.000000
vn 0.1556 0.0119 0.9877
vn 0.1549 0.0119 0.9879
vn 0.1548 0.0119 0.9879
vn -0.1549 0.0119 0.9879
vn -0.1537 0.0120 0.9880
vn -0.1548 0.0119 0.9879
vn -0.1550 0.0119 0.9878
vn -0.1534 0.0120 0.9881
usemtl door_rf_ok.3
s 1
f 2/1/1 1/2/2 3/3/2
f 3/3/2 1/2/2 4/4/2
f 3/3/2 4/4/2 5/5/2
f 5/5/2 4/4/2 6/6/2
f 5/5/2 6/6/2 7/7/2
f 7/7/2 6/6/2 8/8/2
f 7/7/2 8/8/2 9/9/2
f 9/9/2 8/8/2 10/10/2
f 9/9/2 10/10/2 11/11/2
f 11/11/2 10/10/2 12/12/2
f 11/11/2 12/12/2 13/13/2
f 13/13/2 12/12/2 14/14/2
f 13/13/2 14/14/2 15/15/2
f 15/15/2 14/14/2 16/16/3
f 18/17/4 17/18/4 19/19/4
f 18/17/4 19/19/4 20/20/5
f 20/20/5 19/19/4 21/21/4
f 20/20/5 21/21/4 22/22/4
f 22/22/4 21/21/4 23/23/4
f 22/22/4 23/23/4 24/24/4
f 24/24/4 23/23/4 25/25/4
f 24/24/4 25/25/4 26/26/4
f 26/26/4 25/25/4 27/27/4
f 26/26/4 27/27/4 28/28/6
f 28/28/6 27/27/4 29/29/4
f 28/28/6 29/29/4 30/30/4
f 30/30/4 29/29/4 31/31/7
f 30/30/4 31/31/7 32/32/8
