# Blender v2.93.5 OBJ File: 'bruh.blend'
# www.blender.org
mtllib windows2.mtl
o windows2_door_lf_ok.004
v -1.007559 0.402264 -1.181432
v -0.991237 0.401356 -1.714546
v -0.977117 0.503452 -1.179742
v -0.966625 0.496365 -1.709388
v -0.968510 0.528883 -1.186181
v -0.961365 0.512408 -1.694081
v -0.963633 0.541787 -1.207996
v -0.954958 0.532095 -1.656650
v -0.961393 0.545509 -1.249324
v -0.953558 0.540585 -1.613504
v -0.941234 0.685114 -1.813191
v -0.918420 0.806292 -1.721090
v -0.925636 0.776608 -1.723460
v -0.967149 0.564743 -1.734112
v -0.970132 0.504673 -1.931523
v -0.974181 0.471852 -1.943384
v -0.977996 0.448988 -1.940705
v -0.980499 0.432276 -1.923841
v -0.982246 0.426840 -1.893314
v -0.984296 0.428893 -1.742385
v 0.000000 0.424699 -2.462387
v 0.319453 0.421810 -2.442174
v 0.000000 1.007104 -1.874377
v 0.000000 1.007104 -1.874377
v 0.319453 0.421810 -2.442174
v 0.328175 1.004903 -1.854945
v 0.328175 1.004903 -1.854945
v 0.319453 0.421810 -2.442174
v 0.482183 0.418395 -2.415309
v 0.783954 0.412408 -2.312541
v 0.800850 0.981170 -1.780133
v 0.602237 0.996916 -1.820014
v 0.783954 0.412408 -2.312541
v 0.602237 0.996916 -1.820014
v 0.634981 0.414279 -2.376102
v 0.634981 0.414279 -2.376102
v 0.602237 0.996916 -1.820014
v 0.482183 0.418395 -2.415309
v 0.482183 0.418395 -2.415309
v 0.602237 0.996916 -1.820014
v 0.328175 1.004903 -1.854945
v 0.911624 0.703598 -1.973854
v 0.855966 0.929831 -1.796277
v 0.948362 0.468554 -2.163713
v 0.948362 0.468554 -2.163713
v 0.855966 0.929831 -1.796277
v 0.947119 0.442691 -2.191289
v 0.840715 0.960786 -1.776209
v 0.947119 0.442691 -2.191289
v 0.840715 0.960786 -1.776209
v 0.933314 0.425476 -2.217477
v 0.828586 0.972358 -1.773531
v 0.933314 0.425476 -2.217477
v 0.828586 0.972358 -1.773531
v 0.906412 0.418320 -2.241907
v 0.906412 0.418320 -2.241907
v 0.828586 0.972358 -1.773531
v 0.800850 0.981170 -1.780133
v 0.906412 0.418320 -2.241907
v 0.800850 0.981170 -1.780133
v 0.783954 0.412408 -2.312541
v -0.319453 0.421810 -2.442174
v 0.000000 0.424699 -2.462387
v 0.000000 1.007104 -1.874377
v -0.319453 0.421810 -2.442174
v 0.000000 1.007104 -1.874377
v -0.328175 1.004903 -1.854945
v -0.319453 0.421810 -2.442174
v -0.328175 1.004903 -1.854945
v -0.482183 0.418395 -2.415309
v -0.800850 0.981170 -1.780133
v -0.783953 0.412408 -2.312541
v -0.602237 0.996916 -1.820014
v -0.634981 0.414279 -2.376102
v -0.482183 0.418395 -2.415309
v -0.328175 1.004903 -1.854945
v -0.855967 0.929831 -1.796277
v -0.911624 0.703598 -1.973854
v -0.948362 0.468554 -2.163713
v -0.947119 0.442691 -2.191289
v -0.840715 0.960786 -1.776209
v -0.933314 0.425476 -2.217477
v -0.828586 0.972358 -1.773531
v -0.906412 0.418320 -2.241907
v 0.976335 0.563974 -1.708506
v 0.994813 0.404714 -1.714841
v 0.992751 0.570184 -1.175774
v 1.000873 0.478742 -1.183738
v 1.004133 0.443463 -1.199622
v 1.006214 0.420887 -1.224264
v 1.006450 0.411729 -1.256179
v 0.945812 0.779740 -1.165209
v 0.934822 0.778832 -1.698460
v 0.915356 0.880928 -1.163823
v 0.910160 0.873841 -1.693547
v 0.906813 0.906359 -1.170348
v 0.904748 0.889884 -1.678294
v 0.902155 0.919263 -1.192211
v 0.897967 0.909571 -1.640929
v 0.900328 0.922985 -1.233559
v 0.896135 0.918061 -1.597799
v 0.918419 0.806292 -1.721091
v 0.941233 0.685114 -1.813192
v 0.925635 0.776608 -1.723462
v 0.967148 0.564743 -1.734114
v 0.970131 0.504673 -1.931524
v 0.974180 0.471852 -1.943385
v 0.977995 0.448988 -1.940707
v 0.980498 0.432276 -1.923841
v 0.982245 0.426840 -1.893315
v 0.984295 0.428893 -1.742386
vt -0.858423 1.531623
vt -0.868514 1.532456
vt -0.840547 1.625375
vt -0.835776 1.618868
vt -0.832702 1.648728
vt -0.830806 1.633599
vt -0.828425 1.660577
vt -0.824579 1.651677
vt -0.826747 1.663994
vt -0.822897 1.659473
vt -0.843360 1.556839
vt -0.864309 1.445564
vt -0.849986 1.529581
vt -0.888106 1.335031
vt -0.890846 1.279870
vt -0.894564 1.249731
vt -0.898067 1.228736
vt -0.900365 1.213390
vt -0.901969 1.208398
vt -0.903852 1.210284
vt 0.997614 0.003616
vt 0.997614 0.003616
vt 0.997614 0.999879
vt 0.997614 0.999879
vt 0.997614 0.003616
vt 0.997614 0.999879
vt 0.000294 0.999879
vt 0.000294 0.999879
vt 0.000294 0.003616
vt 0.000294 0.003616
vt 0.000294 0.999879
vt 0.000294 0.003616
vt 0.997614 0.999879
vt 0.997614 0.999879
vt 0.000294 0.999879
vt 0.000294 0.999879
vt 0.997614 0.999879
vt 0.000294 0.999879
vt 0.629612 0.003616
vt 0.629612 0.003616
vt 0.629612 0.546156
vt 0.629612 0.003616
vt 0.629612 0.546156
vt 0.629612 0.546156
vt 0.368297 0.546156
vt 0.368297 0.546156
vt 0.368297 0.003616
vt 0.368297 0.003616
vt 0.629612 0.546156
vt 0.629612 0.546156
vt 0.368297 0.546156
vt 0.368297 0.546156
vt 0.629612 0.546156
vt 0.997614 0.999879
vt 0.629612 0.003616
vt 0.629612 0.003616
vt 0.997614 0.999879
vt 0.997614 0.003616
vt 0.000294 0.999879
vt 0.368297 0.546156
vt 0.368297 0.003616
vt 0.000294 0.999879
vt 0.368297 0.003616
vt 0.000294 0.003616
vt 0.629612 0.546156
vt 0.368297 0.546156
vt 0.000294 0.999879
vt 0.629612 0.546156
vt 0.000294 0.999879
vt 0.997614 0.999879
vt 0.719884 1.195146
vt 0.735399 1.717425
vt 0.553018 1.731884
vt 0.583087 1.196864
vt 0.442776 1.200643
vt 0.301354 1.739218
vt 0.837120 1.462538
vt 0.786011 1.670281
vt 0.870855 1.246703
vt 0.869715 1.222954
vt 0.772006 1.698706
vt 0.857037 1.207145
vt 0.760868 1.709332
vt 0.832334 1.200575
vt -0.913511 1.188080
vt -0.896543 1.334325
vt -0.911617 1.340027
vt -0.919075 1.256058
vt -0.922068 1.223662
vt -0.923979 1.202931
vt -0.924196 1.194523
vt -0.868514 1.532456
vt -0.858423 1.531623
vt -0.840547 1.625375
vt -0.835776 1.618868
vt -0.832702 1.648728
vt -0.830806 1.633599
vt -0.828425 1.660577
vt -0.824579 1.651677
vt -0.826747 1.663994
vt -0.822897 1.659473
vt -0.864309 1.445564
vt -0.843360 1.556839
vt -0.849986 1.529581
vt -0.888106 1.335031
vt -0.890846 1.279870
vt -0.894564 1.249731
vt -0.898067 1.228736
vt -0.900365 1.213390
vt -0.901969 1.208398
vt -0.903852 1.210284
vn -0.9718 0.2341 -0.0269
vn -0.9741 0.2238 -0.0332
vn -0.9614 0.2741 -0.0246
vn -0.9574 0.2880 -0.0227
vn -0.9506 0.3096 -0.0231
vn -0.9465 0.3218 -0.0240
vn -0.9501 0.3109 -0.0242
vn -0.9538 0.2993 -0.0245
vn -0.9600 0.2788 -0.0241
vn -0.9622 0.2713 -0.0239
vn -0.9699 0.2316 -0.0749
vn -0.9791 0.1980 -0.0468
vn -0.9767 0.2087 -0.0503
vn -0.9889 0.1462 -0.0270
vn -0.9880 0.1513 -0.0318
vn -0.9898 0.1396 -0.0302
vn -0.9900 0.1382 -0.0277
vn -0.9911 0.1306 -0.0243
vn -0.9913 0.1294 -0.0221
vn -0.9926 0.1208 -0.0146
vn 0.0792 0.7069 -0.7029
vn -0.0000 0.7101 -0.7041
vn 0.0000 0.7095 -0.7047
vn 0.0999 0.7040 -0.7031
vn 0.1529 0.6951 -0.7025
vn 0.3217 0.6418 -0.6962
vn 0.2993 0.6539 -0.6948
vn 0.2103 0.6797 -0.7027
vn 0.2597 0.6737 -0.6919
vn 0.1528 0.6951 -0.7025
vn 0.4084 0.6160 -0.6736
vn 0.1986 0.6333 -0.7480
vn 0.4228 0.6125 -0.6679
vn 0.4229 0.6125 -0.6678
vn 0.4965 0.5987 -0.6284
vn 0.4386 0.6127 -0.6575
vn 0.4965 0.5987 -0.6285
vn 0.4609 0.6084 -0.6461
vn 0.4283 0.6161 -0.6611
vn 0.4282 0.6161 -0.6611
vn 0.4610 0.6083 -0.6461
vn 0.4018 0.6218 -0.6723
vn 0.2994 0.6539 -0.6948
vn -0.0792 0.7069 -0.7029
vn -0.0999 0.7040 -0.7031
vn -0.1529 0.6951 -0.7025
vn -0.2993 0.6539 -0.6948
vn -0.3217 0.6418 -0.6962
vn -0.2103 0.6797 -0.7027
vn -0.2597 0.6737 -0.6919
vn -0.1986 0.6333 -0.7480
vn -0.4084 0.6160 -0.6736
vn -0.4229 0.6125 -0.6678
vn -0.4965 0.5987 -0.6285
vn -0.4386 0.6127 -0.6575
vn -0.4609 0.6083 -0.6461
vn -0.4283 0.6161 -0.6611
vn -0.4018 0.6218 -0.6723
vn 0.9941 0.1055 -0.0260
vn 0.9853 0.1685 -0.0273
vn 0.9902 0.1366 -0.0283
vn 0.9954 0.0929 -0.0238
vn 0.9939 0.1076 -0.0255
vn 0.9930 0.1153 -0.0259
vn 0.9931 0.1146 -0.0259
vn 0.9744 0.2238 -0.0235
vn 0.9721 0.2340 -0.0172
vn 0.9616 0.2740 -0.0149
vn 0.9575 0.2882 -0.0132
vn 0.9508 0.3094 -0.0136
vn 0.9467 0.3217 -0.0145
vn 0.9504 0.3108 -0.0147
vn 0.9540 0.2993 -0.0149
vn 0.9602 0.2788 -0.0145
vn 0.9624 0.2712 -0.0143
vn 0.9791 0.1980 -0.0468
vn 0.9699 0.2316 -0.0749
vn 0.9767 0.2087 -0.0503
vn 0.9889 0.1462 -0.0270
vn 0.9880 0.1513 -0.0318
vn 0.9897 0.1396 -0.0302
vn 0.9900 0.1382 -0.0277
vn 0.9911 0.1306 -0.0243
vn 0.9913 0.1294 -0.0221
vn 0.9926 0.1208 -0.0146
usemtl glass
s 1
f 2/1/1 1/2/2 3/3/3
f 2/1/1 3/3/3 4/4/4
f 4/4/4 3/3/3 5/5/5
f 4/4/4 5/5/5 6/6/6
f 6/6/6 5/5/5 7/7/7
f 6/6/6 7/7/7 8/8/8
f 8/8/8 7/7/7 9/9/9
f 8/8/8 9/9/9 10/10/10
f 12/11/11 11/12/12 13/13/13
f 11/12/12 14/14/14 13/13/13
f 15/15/15 14/14/14 11/12/12
f 14/14/14 15/15/15 16/16/16
f 14/14/14 16/16/16 17/17/17
f 14/14/14 17/17/17 18/18/18
f 14/14/14 18/18/18 19/19/19
f 14/14/14 19/19/19 20/20/20
f 22/21/21 21/22/22 23/23/23
f 25/24/21 24/25/23 26/26/24
f 28/27/21 27/28/24 29/29/25
f 31/30/26 30/31/27 32/32/28
f 34/33/28 33/34/27 35/35/29
f 37/36/28 36/37/29 38/38/25
f 40/39/28 39/40/30 41/41/24
f 43/42/31 42/43/32 44/44/33
f 46/45/31 45/46/34 47/47/35
f 46/45/31 47/47/35 48/48/36
f 50/49/36 49/50/37 51/51/38
f 50/49/36 51/51/38 52/52/39
f 54/53/40 53/54/41 55/55/42
f 57/56/39 56/57/42 58/58/26
f 60/59/26 59/60/42 61/61/43
f 63/62/22 62/63/44 64/64/23
f 66/65/23 65/66/44 67/67/45
f 69/68/45 68/69/44 70/70/46
f 72/71/47 71/72/48 73/73/49
f 72/71/47 73/73/49 74/74/50
f 74/74/50 73/73/49 75/75/46
f 75/75/46 73/73/49 76/76/45
f 78/77/51 77/78/52 79/79/53
f 79/79/53 77/78/52 80/80/54
f 80/80/54 77/78/52 81/81/55
f 80/80/54 81/81/55 82/82/56
f 82/82/56 81/81/55 83/83/57
f 82/82/56 83/83/57 84/84/58
f 84/84/58 83/83/57 71/72/48
f 84/84/58 71/72/48 72/71/47
f 86/85/59 85/86/60 87/87/61
f 86/85/59 87/87/61 88/88/62
f 86/85/59 88/88/62 89/89/63
f 86/85/59 89/89/63 90/90/64
f 86/85/59 90/90/64 91/91/65
f 87/87/61 85/86/60 92/92/66
f 92/92/66 85/86/60 93/93/67
f 92/92/66 93/93/67 94/94/68
f 94/94/68 93/93/67 95/95/69
f 94/94/68 95/95/69 96/96/70
f 96/96/70 95/95/69 97/97/71
f 96/96/70 97/97/71 98/98/72
f 98/98/72 97/97/71 99/99/73
f 98/98/72 99/99/73 100/100/74
f 100/100/74 99/99/73 101/101/75
f 103/102/76 102/103/77 104/104/78
f 105/105/79 103/102/76 104/104/78
f 105/105/79 106/106/80 103/102/76
f 106/106/80 105/105/79 107/107/81
f 107/107/81 105/105/79 108/108/82
f 108/108/82 105/105/79 109/109/83
f 109/109/83 105/105/79 110/110/84
f 110/110/84 105/105/79 111/111/85
